<?xml version="1.0" encoding="UTF-8" standalone="no"?>
<!DOCTYPE svg PUBLIC "-//W3C//DTD SVG 1.1//EN" "http://www.w3.org/Graphics/SVG/1.1/DTD/svg11.dtd">
<svg width="100%" height="100%" viewBox="0 0 512 127" version="1.1" xmlns="http://www.w3.org/2000/svg" xmlns:xlink="http://www.w3.org/1999/xlink" xml:space="preserve" xmlns:serif="http://www.serif.com/" style="fill-rule:evenodd;clip-rule:evenodd;stroke-linejoin:round;stroke-miterlimit:2;">
    <g transform="matrix(1,0,0,1,0,-6.755875)">
        <path d="M37.716,104.568C25.705,104.568 16.416,101.606 9.85,95.684C3.283,89.762 -0,81.252 -0,70.156C-0,59.35 2.99,50.955 8.971,44.97C14.952,38.986 23.494,35.993 34.599,35.993C41.435,35.993 47.289,37.323 52.162,39.983C57.036,42.643 60.491,46.404 62.527,51.267L50.309,60.992C48.494,58.137 46.176,55.927 43.353,54.362C40.531,52.797 37.446,52.015 34.1,52.015C28.822,52.015 24.697,53.533 21.726,56.571C18.754,59.608 17.268,63.928 17.268,69.532C17.268,75.725 19.165,80.442 22.958,83.684C26.751,86.925 32.169,88.546 39.212,88.546C42.193,88.546 45.173,88.401 48.154,88.11C51.135,87.819 54.035,87.424 56.854,86.925L58.6,102.697C55.242,103.446 51.771,103.944 48.188,104.194C44.605,104.443 41.115,104.568 37.716,104.568ZM115.89,103.321L115.89,63.423C115.89,59.726 115.07,56.879 113.428,54.883C111.786,52.888 109.442,51.89 106.394,51.89C97.93,51.89 93.697,57.688 93.697,69.283L89.832,49.21L95.318,49.21C95.942,44.763 97.459,41.448 99.869,39.266C102.279,37.084 105.937,35.993 110.841,35.993C117.823,35.993 123.226,38.113 127.049,42.352C130.873,46.591 132.785,52.576 132.785,60.306L132.785,103.321L115.89,103.321ZM76.803,103.321L76.803,9.811L93.697,9.811L93.697,103.321L76.803,103.321ZM191.758,103.944L190.325,84.369L190.075,75.766L190.075,62.862C190.075,59.329 188.569,56.742 185.556,55.101C182.542,53.459 178.064,52.555 172.121,52.389L155.227,51.953L156.474,36.617L170.874,36.804C182.844,36.97 191.738,39.329 197.556,43.879C203.374,48.43 206.284,55.07 206.284,63.797L206.284,88.235L215.448,89.606L215.448,103.321L191.758,103.944ZM169.378,104.568C162.355,104.568 156.889,102.843 152.983,99.393C149.076,95.944 147.123,91.04 147.123,84.681C147.123,77.283 149.679,71.61 154.791,67.662C159.903,63.714 167.155,61.74 176.547,61.74C180.163,61.74 183.291,61.927 185.93,62.301C188.569,62.675 191.239,63.257 193.94,64.047L191.197,77.2C188.538,76.577 186.148,76.213 184.028,76.109C181.909,76.005 179.685,75.953 177.358,75.953C168.63,75.953 164.266,78.447 164.266,83.434C164.266,85.679 165.056,87.393 166.635,88.577C168.215,89.762 170.521,90.354 173.555,90.354C177.212,90.354 180.267,89.668 182.719,88.297C185.171,86.925 187.01,85.18 188.236,83.06C189.462,80.941 190.075,78.759 190.075,76.515L190.075,72.4L192.444,89.357L187.145,89.357L189.327,87.362C189.202,91.185 188.33,94.375 186.709,96.931C185.088,99.487 182.813,101.399 179.883,102.666C176.953,103.934 173.451,104.568 169.378,104.568ZM251.73,74.894L247.865,52.14L253.538,52.14C254.203,41.375 259.834,35.993 270.432,35.993C276.707,35.993 281.518,38.3 284.864,42.913C288.209,47.526 289.882,54.176 289.882,62.862L273.05,62.862C273.05,58.97 272.338,56.168 270.914,54.457C269.49,52.746 267.189,51.89 264.011,51.89C259.887,51.89 256.808,53.885 254.777,57.875C252.745,61.864 251.73,67.537 251.73,74.894ZM220.934,103.321L220.934,88.858L267.19,88.858L267.19,103.321L220.934,103.321ZM234.898,103.321L234.898,37.24L249.236,37.24L251.73,56.192L251.73,103.321L234.898,103.321ZM223.427,51.703L223.427,37.24L248.363,37.24L249.61,51.703L223.427,51.703ZM325.166,103.321L325.166,40.981L341.998,40.981L341.998,103.321L325.166,103.321ZM300.729,103.321L300.729,87.736L326.413,87.736L326.413,103.321L300.729,103.321ZM340.751,103.321L340.751,87.736L361.573,87.736L361.573,103.321L340.751,103.321ZM304.469,52.825L304.469,37.24L341.998,37.24L341.998,52.825L304.469,52.825ZM332.834,28.326C329.634,28.326 327.037,27.328 325.042,25.333C323.047,23.338 322.049,20.741 322.049,17.541C322.049,14.341 323.047,11.743 325.042,9.748C327.037,7.753 329.634,6.756 332.834,6.756C336.034,6.756 338.632,7.753 340.627,9.748C342.622,11.743 343.619,14.341 343.619,17.541C343.619,20.741 342.622,23.338 340.627,25.333C338.632,27.328 336.034,28.326 332.834,28.326ZM389.876,103.321L389.876,42.851C389.876,19.993 400.91,8.564 422.978,8.564C428.082,8.564 433.007,8.979 437.753,9.811L436.132,25.458C433.333,25.125 430.866,24.897 428.733,24.772C426.6,24.648 424.557,24.585 422.604,24.585C412.006,24.585 406.707,30.466 406.707,42.227L406.707,103.321L389.876,103.321ZM369.802,64.857L369.802,50.394L433.015,50.394L433.015,64.857L369.802,64.857ZM445.047,133.244L444.423,118.594L455.831,117.347C459.738,116.89 463.084,115.851 465.868,114.23C468.653,112.61 471.032,110.189 473.006,106.968C474.98,103.747 476.695,99.539 478.149,94.344L494.108,37.24L512,37.24L493.423,97.461C490.929,105.399 488.061,111.789 484.82,116.63C481.578,121.472 477.734,125.088 473.287,127.478C468.84,129.867 463.52,131.374 457.328,131.997L445.047,133.244ZM465.993,103.321L443.8,37.24L461.691,37.24L478.087,88.983L481.079,88.983L481.079,103.321L465.993,103.321Z" style="fill:rgb(0,255,0);fill-rule:nonzero;"/>
    </g>
</svg>
